# xmcd
#
# Track frame offsets:
#	150
#	13040
#	28585
#	44009
#	56888
#	68992
#	83688
#	98235
#	110317
#	123727
#	135899
#	146802
#	161605
#	175355
#	190718
#	203834
#	217386
#	229789
#	241237
#	255002
#	268563
#	283244
#	298729
#	313839
#	328307
#
# Disc length: 4580 seconds
# Revision: 2
# Processed by: cddbd v1.5.2PL0 Copyright (c) Steve Scherf et al.
# Submitted via: dBpowerAMP V12.0
#
DISCID=8211e219
DTITLE=Various Artist - Broke, Black and Blue Volume 1 - Up Country Blues
DYEAR=1924
DGENRE=Blues
TTITLE0=Ed Andrews - Barrel House Blues
TTITLE1=Tom Delaney - Georgia Stockade Blues
TTITLE2=Memphis Jug Band - Sun Brimmers Blues
TTITLE3=Big Boy Cleveland - Goin' To Leave You Blues
TTITLE4=Blind Blake - Dry Bone Shuffle
TTITLE5=De Ford Bailey - Up Country Blues
TTITLE6=Sippie Wallace - Dead Drunk Blues
TTITLE7=Long "Cleve" Reed, Little Harvey Hull - Original Stack O'Lee Blues
TTITLE8=Barbecue Bob - Easy Rider Don't You Deny My Name
TTITLE9=Kid Brown - Bo-Lita
TTITLE10=William and Versey Smith - Everybody Help The Boys Come Home
TTITLE11=Luke Jordan - Church Bells Blues
TTITLE12=Emery Glenn - Two Ways To Texas
TTITLE13=Barbecue Bob and Laughing Charley - It Won't Be Long Now
TTITLE14=Weaver and Beasley - Bottleneck Blues
TTITLE15=Lewis Black - Rock Island Blues
TTITLE16=William (Bill) Moore - Midnight Blues
TTITLE17=Johnnie Head - Fare Thee Blues, Pt. 1
TTITLE18=Jim Jackson - My Monday Woman Blues
TTITLE19=Frank Stokes - What's The Matter Blues
TTITLE20=Rosie Mae Moore - School Girl Blues
TTITLE21=Tommy Johnson - Cool Drink Of Water Blues
TTITLE22=Ishman Bracey - Left Alone Blues
TTITLE23="Mooch" Richardson - T And T Blues
TTITLE24=T.C. Johnson and "Blue Coat" Tom Nelson - T.C. Johnson Blues
EXTD=
EXTT0=
EXTT1=
EXTT2=
EXTT3=
EXTT4=
EXTT5=
EXTT6=
EXTT7=
EXTT8=
EXTT9=
EXTT10=
EXTT11=
EXTT12=
EXTT13=
EXTT14=
EXTT15=
EXTT16=
EXTT17=
EXTT18=
EXTT19=
EXTT20=
EXTT21=
EXTT22=
EXTT23=
EXTT24=
PLAYORDER=
